<svg width="158" height="164" viewBox="0 0 158 164" fill="none" xmlns="http://www.w3.org/2000/svg">
<g clip-path="url(#clip0)">
<path d="M93.5654 159.166C93.3573 159.304 93.1492 159.443 92.9412 159.512C85.173 162.067 76.9192 163.586 68.3881 163.862C67.9025 163.862 67.417 163.931 66.9315 163.931L83.0922 101.507L83.5083 99.9882L77.1273 95.4307L75.4627 94.2569L82.0518 78.72C87.1844 78.8581 90.4442 79.0653 90.4442 79.0653L91.9008 116.906L93.5654 159.166Z" fill="white"/>
<path d="M84.4794 102.888L68.3881 163.931C67.9025 163.931 67.417 164 66.9315 164L83.0922 101.576L84.4794 102.888Z" fill="#99D3FF"/>
<path d="M84.4794 78.72L77.1273 95.4307L75.4627 94.2569L82.0518 78.72H84.4794Z" fill="#99D3FF"/>
<path d="M83.5083 99.9882L83.0922 101.507L66.9315 163.931C66.3766 163.931 65.8217 163.931 65.2669 163.931C64.712 163.931 64.0878 163.931 63.5329 163.931L70.1914 78.5128C70.1914 78.5128 75.1159 74.715 82.0518 78.651L75.4627 94.1878L77.1273 95.3617L83.5083 99.9882Z" fill="white"/>
<path d="M158 79.6177C158 79.6868 158 79.7558 158 79.8939C157.861 81.6202 156.543 83.2084 155.434 84.4514C154.948 85.0038 154.463 85.6253 153.7 85.8324C153.422 85.9015 153.214 85.9015 152.937 85.8324C152.867 85.8324 152.798 85.8324 152.798 85.8324C152.659 85.9705 152.59 86.1086 152.451 86.2468C151.48 87.4206 150.717 87.9731 150.717 87.9731C148.983 88.4564 146.14 87.7659 146.14 87.7659L145.446 88.4564L144.891 88.9398L136.568 81.344L137.678 79.7558C137.678 79.7558 137.262 74.4388 137.262 73.403C137.262 73.403 138.857 70.0194 140.66 68.9145C140.66 68.9145 142.186 68.5693 143.851 69.1217L149.33 62.0783C149.33 62.0783 152.035 58.0733 154.671 60.0758C154.671 60.0758 156.821 61.664 153.977 65.0476L149.885 69.6741C150.232 69.536 150.648 69.536 151.064 69.6051C152.382 69.8813 153.284 71.1933 153.284 72.5053C153.769 72.2291 154.324 72.091 154.948 72.2291C155.434 72.2981 155.85 72.5743 156.197 72.9196C156.335 73.0577 156.474 73.1958 156.543 73.3339C156.613 73.403 156.682 73.5411 156.682 73.6101C156.752 73.6792 156.752 73.7482 156.752 73.8173C156.752 73.8863 156.752 73.8863 156.821 73.9554V74.0244C156.821 74.0935 156.89 74.1625 156.89 74.2316C156.89 74.3006 156.96 74.3697 156.96 74.4388C156.96 74.5078 156.96 74.5769 157.029 74.6459C157.029 74.715 157.029 74.784 157.029 74.8531C157.029 74.9221 157.029 74.9912 157.029 75.1293C157.029 75.1983 157.029 75.2674 157.029 75.3364C157.029 75.4745 157.029 75.6126 156.96 75.7507C156.96 75.8198 156.96 75.9579 156.89 76.027C156.89 76.1651 156.821 76.3032 156.821 76.4413C156.682 76.9246 156.543 77.339 156.335 77.7533H156.405C156.613 77.8223 156.821 77.8914 156.96 77.9604C157.584 78.2366 158 78.9272 158 79.6177Z" fill="#E2ACAB"/>
<path d="M158 79.8249C157.861 81.5512 156.543 83.1394 155.434 84.3823C154.948 84.9348 154.463 85.5562 153.7 85.7634C153.422 85.8324 153.214 85.8324 152.937 85.7634C152.867 85.7634 152.798 85.7634 152.798 85.7634C152.451 85.6943 152.104 85.4181 151.758 85.0729C151.48 84.7276 151.411 84.3823 151.411 83.968C151.411 83.7609 151.411 83.5537 151.48 83.3465C151.688 82.4489 152.174 81.5512 152.59 80.9988C153.076 80.3082 153.561 79.5487 154.047 78.8581C154.532 78.1676 155.434 77.4771 156.335 77.6152H156.405C156.613 77.6842 156.821 77.7533 156.96 77.8223C157.653 78.3057 158.069 79.1343 158 79.8249Z" fill="#E2ACAB"/>
<path d="M157.029 75.1983C157.098 73.8863 156.266 72.4362 154.879 72.16C153.561 71.8838 152.313 72.9196 151.55 73.8863C150.856 74.8531 150.162 75.8888 149.469 76.8556C148.567 78.2366 147.041 81.0678 148.359 82.5869C149.053 83.3465 150.024 83.7608 151.064 83.5537C152.104 83.2775 152.729 82.4488 153.492 81.6202C155.018 79.8939 156.89 77.6842 157.029 75.1983Z" fill="#E2ACAB"/>
<path d="M43.4881 93.5663L43.4188 94.0497L37.8007 126.09L26.079 122.776C26.0096 120.566 25.9403 118.356 25.8709 116.147C25.3854 98.8143 25.0386 83.4846 25.0386 83.4846C26.7726 82.7251 28.8534 82.1036 31.2116 81.5512C32.1132 81.344 33.0149 81.1369 33.9859 80.9987L43.3494 93.4973L43.4881 93.5663Z" fill="white"/>
<path d="M62.4232 163.931C61.2441 163.862 60.065 163.862 58.8859 163.724L45.9851 144.596C46.6093 141.282 47.511 134.929 46.748 129.543C46.6786 129.197 46.6786 128.921 46.6093 128.576L37.8007 126.09L43.4188 94.0497L43.4881 93.5663L43.4188 93.4973L33.9859 80.9988C34.4714 80.7225 35.0263 80.4463 35.5118 80.2392C41.8929 77.408 46.5399 79.3415 46.5399 79.3415C52.0193 89.8375 59.8569 145.08 62.4232 163.931Z" fill="white"/>
<path d="M27.3968 155.368C27.1887 151.571 26.9113 146.875 26.7032 141.696L45.4995 146.806C45.4995 146.806 45.5689 146.53 45.7076 145.977C45.777 145.563 45.8463 145.08 45.9851 144.527L58.8859 163.655C47.719 162.964 37.0377 159.995 27.3968 155.368Z" fill="white"/>
<path d="M70.122 78.5819L63.4635 164C63.1167 164 62.7699 164 62.4232 164C59.8569 145.08 52.0193 89.8375 46.5399 79.4105C54.3775 78.72 62.7699 78.5129 70.122 78.5819Z" fill="#99D3FF"/>
<path d="M66.3766 105.098L62.4232 125.814L57.4987 151.225L56.0421 159.166L23.4434 152.192L25.108 144.734L28.9921 127.057L34.8876 99.9882L66.3766 105.098Z" fill="#E6C34B"/>
<path d="M41.9622 101.162L41.1993 104.477L60.273 107.653L60.6892 104.2C60.7585 104.2 51.4644 99.7811 41.9622 101.162Z" fill="#AD9238"/>
<path d="M62.4232 125.814L57.568 151.225C56.2502 150.949 54.5856 150.397 53.7533 149.499L52.2274 149.085L50.216 148.532C50.0079 149.223 49.6611 149.913 49.3836 150.535L46.6786 149.706C46.5399 150.259 46.4706 150.535 46.4706 150.535L27.7436 145.425L25.108 144.734L28.9921 127.057L47.6497 132.305C47.719 132.65 47.719 132.926 47.7884 133.272L51.7419 133.41C51.7419 133.41 51.8112 133.962 51.8806 134.86L52.6435 134.653L55.0017 133.893C55.0017 133.893 55.4179 132.995 56.1808 131.821C57.3599 130.026 59.302 127.471 61.7989 126.159C61.9376 126.021 62.1457 125.883 62.4232 125.814Z" fill="#AD9238"/>
<path d="M46.748 129.543C47.511 134.86 46.6093 141.213 45.9851 144.596L36.899 131.131L37.8007 126.09L46.6093 128.576C46.6786 128.921 46.6787 129.197 46.748 129.543Z" fill="#4EFF87"/>
<path d="M45.7076 146.046C45.5689 146.599 45.4996 146.875 45.4996 146.875L26.7032 141.765L18.2414 139.486C-3.39861 134.376 0.208068 127.885 0.208068 127.885C4.85513 104.546 25.0386 83.5537 25.0386 83.5537C25.0386 83.5537 25.3161 98.8834 25.8709 116.216C23.6514 119.254 22.3336 121.809 22.3336 121.809L26.079 122.845L46.6093 128.576C46.6787 128.921 46.748 129.197 46.748 129.543C47.6497 135.827 46.1931 143.56 45.7076 146.046Z" fill="white"/>
<path d="M144.059 94.3259L117.286 128.852C117.286 128.852 113.333 134.86 102.721 127.126C102.721 127.126 100.848 125.469 98.4205 123.19C96.3397 121.256 93.9122 118.909 91.9701 116.768L90.7217 83.968L90.5136 78.9272C90.5136 78.9272 102.721 92.0472 111.113 107.239L131.227 81.8274L131.921 82.4489L143.365 93.4973L144.059 94.3259Z" fill="white"/>
<path d="M146.625 90.3899L143.296 93.6354L131.782 82.587L134.349 79.3415L136.568 81.344L138.025 82.656L144.961 88.8708L146.625 90.3899Z" fill="#99D3FF"/>
<path d="M148.845 67.3954C149.538 67.8787 150.024 68.2931 149.954 68.5002C149.885 68.6383 149.191 68.4312 148.428 67.8788C147.735 67.3263 147.319 66.7049 147.457 66.5667C147.596 66.4977 148.22 66.912 148.845 67.3954Z" fill="#11110A"/>
<path d="M151.342 64.0118C151.966 64.7023 152.382 65.3238 152.243 65.3929C152.104 65.531 151.48 65.0476 150.925 64.4261C150.232 63.8737 149.746 63.3213 149.885 63.1832C149.954 63.0451 150.648 63.3903 151.342 64.0118Z" fill="#11110A"/>
<path d="M49.245 144.872C49.0369 145.563 48.6901 146.253 48.4126 146.875L45.7076 146.046C46.1932 143.56 47.6497 135.827 46.748 129.543L50.7015 129.681C50.7015 129.681 50.7709 130.233 50.8402 131.131C51.0483 133.755 51.187 139.486 49.245 144.872Z" fill="#99D3FF"/>
<path d="M69.0817 132.65C69.0817 132.65 68.9429 140.384 65.0588 144.803C63.5329 146.599 61.3828 147.842 58.4004 147.773C58.4004 147.773 54.2388 147.496 52.7129 145.77L51.187 145.356L49.1756 144.803C51.1177 139.486 50.9789 133.686 50.7709 131.131L51.5338 130.855L53.892 130.095C53.892 130.095 54.3082 129.197 55.0711 128.024C56.2502 126.228 58.1923 123.673 60.6892 122.361C61.5215 121.947 62.3538 121.671 63.2555 121.602L63.6717 119.323C63.741 119.392 69.9833 120.635 69.0817 132.65Z" fill="#E2ACAB"/>
<path d="M60.6892 122.43C58.1923 123.742 56.1809 126.297 55.0711 128.093C55.1405 127.747 55.9034 120.497 56.2502 119.392C56.2502 119.392 56.9438 116.285 58.4697 116.423C58.4697 116.423 60.5505 116.423 60.6892 119.392C60.6892 119.392 60.7586 121.464 60.6892 122.43Z" fill="#E2ACAB"/>
<path d="M69.0816 132.65C69.0816 132.65 68.9429 140.384 65.0588 144.803C68.8736 126.504 63.3248 121.602 63.3248 121.602L63.741 119.323C63.741 119.392 69.9833 120.635 69.0816 132.65Z" fill="#E2ACAB"/>
<path d="M51.6031 76.3032C51.6031 76.3032 56.0421 73.6101 64.2959 74.8531L65.683 79.2034L62.978 83.0703L56.2502 84.9347L52.0193 81.1368L51.6031 76.3032Z" fill="#11110A"/>
<path d="M63.1168 77.5461L59.5794 85.28L53.0597 77.9604V70.7099H62.6312L62.77 73.2649L63.1168 77.5461Z" fill="#E2ACAB"/>
<path d="M62.77 73.2649C60.8279 74.0244 56.9438 75.2674 53.0597 74.9912V70.7099H62.6313L62.77 73.2649Z" fill="#11110A"/>
<path d="M59.5794 85.28L58.9552 87.6969L56.7357 96.3284L47.8578 81.275C47.8578 81.275 48.0658 78.8581 49.6611 77.408C50.1466 76.9247 50.7708 76.5794 51.6031 76.4413L53.0597 78.0295L59.5794 85.28Z" fill="#99D3FF"/>
<path d="M68.5961 80.1011L64.2959 95.0164L60.6198 87.4206L59.5794 85.28L63.1168 77.6152L64.3652 74.9221C67.5557 76.096 68.5961 80.1011 68.5961 80.1011Z" fill="#99D3FF"/>
<path d="M153.214 72.6434C153.284 71.3314 152.451 69.8813 151.064 69.6051C149.746 69.3289 148.498 70.3646 147.735 71.3314C147.041 72.2981 146.348 73.3339 145.654 74.3006C144.752 75.6817 143.227 78.5128 144.544 80.032C145.238 80.7916 146.209 81.2059 147.249 80.9987C148.29 80.7225 148.914 79.8939 149.677 79.0653C151.133 77.2699 153.075 75.1293 153.214 72.6434Z" fill="#E2ACAB"/>
<path d="M153.076 71.6076C153.145 71.9529 153.214 72.2981 153.214 72.5743C153.076 75.0602 151.133 77.2699 149.608 78.9962C148.914 79.8249 148.29 80.6535 147.18 80.9297C146.14 81.2059 145.169 80.7916 144.475 79.963C144.406 79.8939 144.406 79.8249 144.336 79.7558C144.406 80.1011 144.544 80.3773 144.752 80.6535C145.446 81.4131 146.417 81.8274 147.457 81.6202C148.498 81.344 149.122 80.5154 149.885 79.6867C151.411 77.9604 153.284 75.7507 153.492 73.2649C153.561 72.7815 153.422 72.16 153.076 71.6076Z" fill="#11110A"/>
<path d="M140.799 73.9554C140.799 73.9554 143.851 79.7558 147.249 75.8889C147.319 75.8889 143.851 75.4745 140.799 73.9554Z" fill="#11110A"/>
<path d="M147.457 75.7508C147.457 75.7508 145.377 77.9604 140.591 73.7482L140.452 79.3415L138.094 82.656L136.637 81.344L137.747 79.7558C137.747 79.7558 137.331 74.4388 137.331 73.403C137.331 73.403 138.926 70.0194 140.73 68.9145C140.73 68.9145 144.475 67.9478 146.694 71.2623C146.625 71.2623 149.122 74.0935 147.457 75.7508Z" fill="#E2ACAB"/>
<path d="M144.059 72.6434C144.544 71.9529 145.03 71.4695 145.169 71.5385C145.307 71.6076 145.03 72.2981 144.614 72.9887C144.128 73.6792 143.643 74.1626 143.504 74.0935C143.365 74.0244 143.573 73.403 144.059 72.6434Z" fill="#11110A"/>
<path d="M154.532 83.5537C154.948 83.968 155.156 84.3133 155.018 84.4514C154.879 84.5895 154.463 84.3823 154.116 83.968C153.7 83.6227 153.422 83.2775 153.492 83.1394C153.561 83.0013 154.116 83.1394 154.532 83.5537Z" fill="#11110A"/>
<path d="M151.411 80.8606C151.966 81.344 152.382 81.8274 152.243 81.9655C152.105 82.1036 151.619 81.8274 150.995 81.344C150.44 80.8606 150.024 80.3773 150.162 80.2392C150.301 80.1011 150.856 80.3773 151.411 80.8606Z" fill="#11110A"/>
<path d="M147.735 77.7533C148.29 78.1676 148.775 78.5819 148.637 78.72C148.567 78.8581 148.012 78.651 147.388 78.2367C147.111 78.0295 146.833 77.7533 146.694 77.5461C146.556 77.339 146.556 77.1318 146.625 77.0628C146.694 77.0628 146.833 77.1318 147.041 77.2009C147.18 77.339 147.457 77.5461 147.735 77.7533Z" fill="#11110A"/>
<path d="M156.474 73.9554C156.335 73.8173 156.197 73.6101 156.058 73.472C156.266 73.6792 156.405 73.8173 156.474 73.9554Z" fill="#421471"/>
<path d="M156.474 77.6842C156.682 77.7533 156.89 77.8223 157.029 77.8914C156.335 79.4105 155.087 80.8606 154.047 82.0345C153.353 82.8632 152.729 83.6918 151.619 83.968C151.55 83.968 151.48 83.968 151.48 83.968C150.648 84.1061 149.885 83.8299 149.261 83.2775C149.816 83.5537 150.371 83.6227 151.064 83.4846C151.203 83.4156 151.411 83.4156 151.55 83.2775C152.313 82.9322 152.867 82.2417 153.492 81.5512C154.532 80.3773 155.642 79.0653 156.405 77.5461C156.405 77.6842 156.405 77.6842 156.474 77.6842Z" fill="#11110A"/>
<path d="M140.452 78.72C140.452 78.72 142.255 77.1318 142.047 74.8531L143.157 75.8889C143.088 75.9579 143.365 77.8223 140.452 78.72Z" fill="#11110A"/>
<path d="M152.867 85.8324C152.729 85.9705 152.659 86.1086 152.521 86.2467C152.313 86.1086 152.104 85.9705 151.966 85.7634C151.688 85.4872 151.619 85.1419 151.619 84.7276C151.688 84.8657 151.758 85.0038 151.827 85.1419C152.104 85.4872 152.451 85.6943 152.867 85.8324Z" fill="#11110A"/>
<path d="M146.209 87.6969L145.515 88.3874C144.822 87.835 143.989 86.7992 143.504 84.7276C143.573 85.0038 144.406 86.6611 146.209 87.6969Z" fill="#11110A"/>
<path d="M22.1255 45.4366C23.1659 47.4392 25.0386 50.2013 27.6743 49.7179C30.518 49.2345 31.2809 45.6438 31.9745 43.3651C33.223 39.36 28.6453 32.2476 23.8595 33.2834C18.7963 34.3882 20.5303 42.4674 22.1255 45.4366Z" fill="#E2ACAB"/>
<path d="M95.8542 45.4366C94.8139 47.4392 92.9412 50.2013 90.3055 49.7179C87.4618 49.2345 86.6989 45.6438 86.0053 43.3651C84.7568 39.36 89.3345 32.2476 94.1203 33.2834C99.1835 34.3882 97.3801 42.4674 95.8542 45.4366Z" fill="#E2ACAB"/>
<path d="M96.2704 28.9331C94.259 32.1095 91.9701 33.8358 89.6813 34.5954C84.2019 36.4598 78.8613 33.1453 78.8613 33.1453C73.1045 29.3474 67.7638 31.0046 67.7638 31.0046C53.9614 34.2501 43.1413 28.4497 38.5636 25.3423C36.9684 24.2375 36.1361 23.4779 36.1361 23.4779C37.1765 26.6543 37.7313 29.5545 37.87 32.1785C38.0088 34.3882 37.8007 36.3908 37.4539 38.1861C37.3845 38.4623 37.3152 38.8076 37.2458 39.0838C36.899 40.4649 36.4829 41.7078 35.928 42.8126C35.8586 43.0198 35.7199 43.296 35.5812 43.5032C34.1247 46.2653 32.3907 48.1297 31.0035 49.3036C29.3389 43.1579 28.7146 37.979 28.4372 34.9406C28.4372 34.5263 28.3679 34.112 28.3679 33.7668C28.3679 33.5596 28.3679 33.3524 28.3679 33.2143C28.3679 32.5929 28.2985 32.2476 28.2985 32.2476C28.2985 31.6952 28.2985 31.0737 28.2985 30.5213C29.3389 -0.483354 58.9552 1.47045e-05 58.9552 1.47045e-05C73.5206 1.47045e-05 81.1501 7.94107 85.173 15.8821C85.5197 16.5726 85.7972 17.1941 86.0746 17.8156C89.4732 17.6084 91.7621 18.0228 93.2186 18.4371C94.3977 18.7823 94.9526 19.1276 94.9526 19.1276C99.3222 21.7516 96.2704 28.9331 96.2704 28.9331Z" fill="#C73D48"/>
<path d="M89.6119 34.5954C89.6119 34.7335 89.6119 34.8716 89.6119 34.9407C89.6119 35.4931 89.5426 35.9765 89.5426 36.4598C89.5426 36.736 89.4732 37.0122 89.4732 37.2885C89.4732 37.6337 89.4039 37.979 89.3345 38.3242C87.8086 52.2729 81.0808 63.3213 81.0808 63.3213C80.942 63.4594 80.8727 63.5975 80.734 63.7356C73.1045 72.3672 57.7761 72.5743 57.7761 72.5743C41.4767 71.5386 35.7893 62.4927 35.7893 62.4927C35.7893 62.4236 35.7199 62.3546 35.7199 62.3546C33.5698 57.8661 31.9745 53.3087 30.9341 49.0964C32.252 47.9226 34.0553 46.0581 35.5118 43.296C35.6506 43.0889 35.7199 42.8127 35.8586 42.6055C37.0377 40.1887 37.8007 37.1503 37.8007 33.4215C37.8007 33.2143 37.8007 32.9381 37.8007 32.731C37.8007 32.4548 37.8007 32.2476 37.8007 31.9714C37.8007 31.6261 37.7313 31.3499 37.7313 31.0047C37.662 30.3832 37.5926 29.8308 37.5233 29.2093C37.5233 29.0712 37.4539 28.864 37.4539 28.7259C37.3152 28.1045 37.2458 27.4139 37.0377 26.7925C36.9684 26.5162 36.899 26.171 36.8297 25.8948C36.8297 25.7567 36.7603 25.6186 36.6909 25.4805C36.6216 25.2042 36.5522 24.859 36.4135 24.5828C36.2748 24.1685 36.1361 23.8232 36.0667 23.4089C36.0667 23.4089 36.2748 23.616 36.7603 23.9613C36.8297 24.0303 36.9684 24.0994 37.0377 24.1685C37.8701 24.7899 39.2572 25.8257 41.0606 26.8615C41.4767 27.1377 41.8929 27.3449 42.3784 27.552C42.4478 27.6211 42.5865 27.6211 42.6558 27.6901C42.8639 27.7592 43.072 27.8973 43.2801 28.0354C43.4188 28.1045 43.6269 28.1735 43.7656 28.2426C43.9737 28.3807 44.2511 28.4497 44.5285 28.5878C44.6672 28.6569 44.8753 28.7259 45.014 28.795C45.2915 28.9331 45.6383 29.0712 45.9157 29.2093C46.1931 29.2783 46.4012 29.4165 46.6787 29.4855C47.9965 29.9689 49.453 30.4522 51.0483 30.7975C51.3951 30.8666 51.8112 30.9356 52.158 31.0737C52.8516 31.2118 53.5452 31.3499 54.3082 31.488C54.7937 31.5571 55.3485 31.6261 55.8341 31.6952C56.1809 31.7642 56.5276 31.7642 56.8744 31.7642C56.9438 31.7642 56.9438 31.7642 57.0132 31.7642C57.4293 31.7642 57.8455 31.8333 58.2616 31.8333C58.331 31.8333 58.331 31.8333 58.4003 31.8333C58.8165 31.8333 59.2327 31.8333 59.6488 31.8333C62.2151 31.8333 64.9201 31.5571 67.8332 30.8666C67.8332 30.8666 73.2432 29.2093 78.9306 33.0072C78.7919 33.1453 84.1326 36.4598 89.6119 34.5954Z" fill="#E2ACAB"/>
<path d="M30.9341 49.2345C28.4372 39.6362 28.2985 32.2476 28.2985 32.2476C28.2985 31.6952 28.2985 31.0737 28.2985 30.5213C28.9921 31.0737 29.6163 31.8333 30.518 32.4547C32.252 33.6977 33.6391 32.3166 35.3038 31.9023C36.2054 31.6952 37.0377 31.8333 37.7313 32.1785C38.2862 41.5006 33.6391 46.8867 30.9341 49.2345Z" fill="#952E36"/>
<path d="M48.8981 44.8152C51.3257 45.8509 51.8112 42.3983 51.4644 40.8101C51.2564 39.7743 50.8402 38.2552 49.5917 38.1171C48.3433 37.9789 47.5803 39.2909 47.3722 40.3267C47.1642 41.7078 47.4416 44.1937 48.8981 44.8152Z" fill="#11110A"/>
<path d="M71.0237 44.8152C73.4513 45.8509 73.9368 42.3983 73.59 40.8101C73.3819 39.7743 72.9658 38.2552 71.7173 38.1171C70.4688 37.9789 69.7059 39.2909 69.4978 40.3267C69.2897 41.7078 69.5672 44.1937 71.0237 44.8152Z" fill="#11110A"/>
<path d="M63.0474 50.2013C62.1457 51.9276 60.9666 53.3086 59.9262 54.0682C59.4407 54.4825 58.9552 54.6897 58.6084 54.8278C58.2616 54.9659 58.0535 54.9659 57.9842 54.8968C57.6374 54.4825 59.8569 52.48 61.4521 49.3726C61.5215 49.3036 61.5215 49.1655 61.5908 49.0964C61.5908 49.0274 61.5908 49.0274 61.5908 49.0274L61.5215 48.8893C61.3828 48.4749 61.244 48.0606 61.1053 47.7154C60.8279 46.9558 60.6198 46.2653 60.4811 45.7128C60.1343 44.5389 60.0649 43.7794 60.3424 43.6413C60.5505 43.5722 61.1053 44.1246 61.6602 45.2295C61.9376 45.7819 62.2844 46.4034 62.6312 47.0939C62.77 47.4392 62.978 47.8535 63.1861 48.1987C63.2555 48.3368 63.3248 48.544 63.3942 48.6821L63.5329 48.9583C63.6023 49.0274 63.5329 49.0274 63.5329 49.0964L63.4635 49.2345C63.3942 49.4417 63.3248 49.5798 63.2555 49.7869C63.1861 49.9251 63.1167 50.0632 63.0474 50.2013Z" fill="#11110A"/>
<path d="M89.6119 34.9406L78.6532 41.0173C78.5839 39.7743 78.2371 37.9099 77.4047 36.4598C76.1563 34.4573 74.3529 33.4215 72.2028 33.4215C69.3591 33.4215 66.5154 35.424 65.2669 38.2552C64.9201 39.0838 64.712 39.9815 64.6427 40.8792C61.3134 38.6695 57.9842 40.1887 56.7357 40.8792C56.597 39.6362 56.3196 37.8409 55.4873 36.5289C54.2388 34.5263 52.4355 33.4905 50.2853 33.4905C47.4416 33.4905 44.5979 35.4931 43.3494 38.3242C42.9333 39.36 42.6558 40.5339 42.6558 41.6388L37.4539 38.2552L28.4372 32.3167C28.4372 32.3167 28.4372 32.6619 28.5066 33.2834L37.3152 39.2219L42.7946 42.8817C42.8639 43.5722 43.0026 44.1937 43.2801 44.7461C44.7366 48.2678 47.2335 50.3394 50.0079 50.3394C50.6321 50.3394 51.3257 50.2013 51.95 49.9941C55.1405 48.9583 56.9438 45.0223 56.8745 41.8459C57.6374 41.3625 61.1747 39.2219 64.712 41.915C64.712 42.9508 64.8507 43.9865 65.1975 44.8152C66.6541 48.3369 69.151 50.4084 71.9254 50.4084C72.5496 50.4084 73.2432 50.2703 73.8674 50.0632C76.9886 49.0964 78.8613 45.2295 78.7919 42.0531L89.6813 36.736C89.5426 35.9764 89.6119 35.4931 89.6119 34.9406ZM51.5338 49.2345C50.9096 49.4417 50.3547 49.5108 49.7998 49.5108C46.2625 49.5108 44.3898 45.92 43.6962 44.4009C43.0026 42.8127 43.072 40.5339 43.9043 38.6004C45.014 35.9764 47.5803 34.1811 50.216 34.1811C52.158 34.1811 53.7533 35.1478 54.863 36.9432C55.7647 38.3933 55.9728 40.4649 56.0421 41.5697C56.1115 44.539 54.3775 48.2678 51.5338 49.2345ZM73.5206 49.2345C72.8964 49.4417 72.3415 49.5108 71.7867 49.5108C68.2493 49.5108 66.3766 45.92 65.6831 44.4009C64.9895 42.8127 65.0588 40.5339 65.8911 38.6004C67.0009 35.9764 69.5672 34.1811 72.2028 34.1811C74.1449 34.1811 75.7401 35.1478 76.8499 36.9432C77.7515 38.3933 77.9596 40.4649 78.029 41.5697C78.0983 44.539 76.3644 48.2678 73.5206 49.2345Z" fill="#11110A"/>
<path d="M96.2704 28.9331C94.259 32.1095 91.9701 33.8358 89.6813 34.5954C84.2019 36.4598 78.8613 33.1453 78.8613 33.1453C73.1045 29.3474 67.7638 31.0046 67.7638 31.0046C53.9613 34.2501 43.1413 28.4497 38.5636 25.3423C40.0895 25.5495 41.5461 25.5495 43.0026 24.859C45.0834 23.9613 46.6786 22.3731 48.5513 20.992C53.4758 17.1941 59.3714 15.9512 64.9894 18.9895C70.122 21.7516 75.2546 25.2042 80.8033 26.9305C84.3406 28.0354 89.8894 27.3449 92.1088 24.0994C92.9412 22.8564 93.2186 21.3373 93.4267 19.8872C93.496 19.4038 93.496 18.9895 93.4267 18.5061C94.6058 18.8514 95.1606 19.1966 95.1606 19.1966C99.3222 21.7516 96.2704 28.9331 96.2704 28.9331Z" fill="#952E36"/>
<path d="M86.144 17.8847C81.4276 18.2299 76.9192 15.8131 76.6418 15.744C80.3872 16.5727 83.3003 16.3655 85.2423 15.9512C85.5197 16.5727 85.8665 17.1941 86.144 17.8847Z" fill="#952E36"/>
<path d="M89.4732 37.3575C89.4732 37.7028 89.4038 38.048 89.3345 38.3933L79.0693 48.3369L61.3134 65.2548L50.9096 62.0783L50.8402 62.0093L35.5118 43.5032L28.4372 34.9406C28.4372 34.5263 28.3679 34.112 28.3679 33.7668L35.8586 42.8126L51.2563 61.4569L61.1053 64.4952L78.5838 47.8535L89.4732 37.3575Z" fill="#004CB3"/>
<path d="M80.734 63.8046C80.3872 64.219 79.971 64.6333 79.5549 65.0476C71.6479 72.5053 57.8455 72.7124 57.8455 72.7124C45.4996 71.9529 39.1879 66.5667 36.899 64.0118C36.2054 63.1832 35.8586 62.6998 35.8586 62.6998C35.8586 62.6308 35.7893 62.5617 35.7893 62.5617C37.3152 60.2139 39.7427 55.5183 39.9508 48.1988C39.9508 48.1988 57.4293 58.3495 78.9306 48.1988C78.8613 48.0606 77.0579 56.347 80.734 63.8046Z" fill="#99D3FF"/>
<path d="M80.734 63.8046C80.3872 64.219 79.971 64.6333 79.5549 65.0476C75.3239 57.728 77.266 50.2703 77.266 50.2703C58.1923 60.2139 41.1993 50.4775 41.1993 50.4775C41.1993 57.659 38.4943 62.0093 36.8297 64.0118C36.1361 63.1832 35.7893 62.6998 35.7893 62.6998C35.7893 62.6308 35.7199 62.5617 35.7199 62.5617C37.2458 60.2139 39.6734 55.5183 39.8815 48.1988C39.8815 48.1988 57.3599 58.3495 78.8613 48.1988C78.8613 48.0606 77.0579 56.347 80.734 63.8046Z" fill="white"/>
<path d="M59.7182 59.5234C62.007 59.5234 64.1571 59.3162 66.0992 58.971C67.0702 58.7638 67.9719 58.5566 68.8042 58.2804C69.2204 58.1423 69.6365 58.0733 69.9833 57.9352C70.3301 57.7971 70.7463 57.659 71.093 57.5209C71.7866 57.3137 72.4109 56.9684 72.8964 56.6922C73.4513 56.4851 73.8674 56.2088 74.2142 56.0017C74.9078 55.5874 75.3933 55.3802 75.3933 55.4493C75.3933 55.4493 75.0465 55.7945 74.3529 56.2089C74.0061 56.4851 73.59 56.7613 73.0351 57.0375C72.4802 57.3137 71.9254 57.659 71.2318 57.9352C70.885 58.0733 70.5382 58.2114 70.122 58.4185C69.7752 58.5566 69.2897 58.6947 68.8736 58.8328C68.0412 59.1091 67.0702 59.3162 66.0992 59.5924C64.1571 60.0067 61.9376 60.2139 59.6488 60.2139C57.3599 60.1448 55.1405 59.8686 53.1984 59.5234C52.2274 59.3162 51.3257 59.1091 50.424 58.8328C50.0079 58.6947 49.5917 58.5566 49.1756 58.4876C48.7594 58.3495 48.4126 58.2114 48.0658 58.0733C47.3722 57.8661 46.748 57.5899 46.1931 57.3137C45.6383 57.1065 45.1527 56.8994 44.8059 56.6922C44.043 56.347 43.6268 56.0707 43.6962 56.0707C43.7656 56.0017 45.4302 56.7613 48.2739 57.728C48.6207 57.8661 49.0369 57.9352 49.3836 58.0733C49.7998 58.2114 50.216 58.2804 50.6321 58.4185C51.4644 58.6947 52.3661 58.8328 53.3371 59.04C55.3485 59.1781 57.4987 59.4543 59.7182 59.5234Z" fill="#0092FF"/>
<path d="M59.5794 64.3571C61.3828 64.288 63.1167 64.0118 64.6426 63.7356C65.4056 63.5284 66.1685 63.3903 66.7928 63.1832C67.4864 62.976 68.1106 62.7689 68.6655 62.5617C70.9543 61.7331 72.2721 61.0425 72.2721 61.1116C72.2721 61.1806 71.9947 61.3188 71.3705 61.664C71.093 61.8021 70.7462 62.0093 70.2607 62.2164C69.8446 62.4236 69.3591 62.6998 68.7348 62.907C68.18 63.1141 67.5557 63.3903 66.8621 63.5975C66.1685 63.8047 65.475 64.0118 64.6426 64.219C63.0474 64.5642 61.3134 64.8404 59.4407 64.9095C57.568 64.9786 55.834 64.7714 54.2388 64.4952C53.4758 64.3571 52.7129 64.1499 52.0193 63.9428C51.3257 63.7356 50.7015 63.5284 50.1466 63.3213C49.5917 63.1141 49.1062 62.8379 48.6207 62.6998C48.2045 62.4927 47.7884 62.2855 47.511 62.1474C46.9561 61.8021 46.6093 61.595 46.6093 61.595C46.6786 61.5259 47.9965 62.2164 50.216 62.976C50.7708 63.1832 51.3951 63.3903 52.0887 63.5284C52.7822 63.7356 53.4758 63.8737 54.3081 64.0118C56.0421 64.288 57.7761 64.4261 59.5794 64.3571Z" fill="#0092FF"/>
<path d="M60.9666 69.0526C62.9087 68.8455 64.712 68.5693 66.3766 68.155C67.9719 67.6716 69.4284 67.1882 70.6075 66.6358C72.8964 65.531 74.0755 64.4261 74.1448 64.5642C74.1448 64.5642 73.8674 64.8404 73.3125 65.3929C73.0351 65.6691 72.6883 65.8762 72.2722 66.1524C72.0641 66.2905 71.856 66.4286 71.5786 66.6358C71.3011 66.7739 71.0237 66.912 70.7463 67.0501C69.6365 67.6716 68.18 68.224 66.5153 68.7074C64.8507 69.1907 62.978 69.536 61.036 69.6741C59.0246 69.8122 57.1519 69.8122 55.4179 69.6051C53.6839 69.3979 52.158 69.0526 50.9789 68.5693C50.7015 68.4312 50.3547 68.3621 50.0772 68.2931C49.7998 68.155 49.5917 68.0169 49.3143 67.9478C48.8288 67.7406 48.4126 67.5335 48.1352 67.3263C47.511 66.912 47.2335 66.7049 47.2335 66.6358C47.3029 66.4977 48.6207 67.4644 51.0483 68.224C52.2274 68.6383 53.7533 68.8455 55.4179 69.0526C57.2212 69.1907 59.0939 69.1907 60.9666 69.0526Z" fill="#0092FF"/>
<path d="M56.1808 91.0804L59.5794 85.28L58.9552 87.6969L56.7357 96.3284L47.8578 81.275C47.8578 81.275 48.0658 78.8581 49.6611 77.408C49.5917 77.5461 48.6207 78.7891 49.2449 81.0678L56.1808 91.0804Z" fill="#0092FF"/>
<path d="M68.5961 80.1011L64.2959 95.0164L60.6198 87.4206L59.5794 85.28L64.0878 89.5613L66.9315 79.7558C66.9315 79.7558 66.8621 77.2699 64.3652 74.8531C67.5557 76.096 68.5961 80.1011 68.5961 80.1011Z" fill="#0092FF"/>
<path d="M51.187 145.356L49.1756 144.803C51.1177 139.486 50.9789 133.686 50.7709 131.131L51.5338 130.855C51.6032 130.924 52.8516 139.279 51.187 145.356Z" fill="#11110A"/>
<path d="M98.3512 123.328C96.2704 121.395 93.8428 119.047 91.9008 116.906L90.6523 84.1061L98.3512 123.328Z" fill="#99D3FF"/>
<path d="M25.5241 104.2L22.6804 119.668L15.8139 119.392L22.3336 121.809L25.8709 116.216L25.5241 104.2Z" fill="#99D3FF"/>
<path d="M43.4188 93.6354L43.3494 94.1188L31.2116 81.6202C32.1132 81.4131 33.0149 81.2059 33.9859 81.0678L43.3494 93.5663L43.4188 93.6354Z" fill="#99D3FF"/>
</g>
<defs>
<clipPath id="clip0">
<rect width="158" height="164" fill="white"/>
</clipPath>
</defs>
</svg>
